<mxfile host="app.diagrams.net" modified="2023-12-14T16:53:38.735Z" agent="Mozilla/5.0 (Windows NT 10.0; Win64; x64) AppleWebKit/537.36 (KHTML, like Gecko) Chrome/120.0.0.0 Safari/537.36" etag="QAM7eVhA66QoGSN6hJDt" version="22.1.9" type="device">
  <diagram id="C5RBs43oDa-KdzZeNtuy" name="Page-1">
    <mxGraphModel dx="1434" dy="738" grid="1" gridSize="10" guides="1" tooltips="1" connect="1" arrows="1" fold="1" page="1" pageScale="1" pageWidth="827" pageHeight="1169" math="0" shadow="0">
      <root>
        <mxCell id="WIyWlLk6GJQsqaUBKTNV-0" />
        <mxCell id="WIyWlLk6GJQsqaUBKTNV-1" parent="WIyWlLk6GJQsqaUBKTNV-0" />
        <mxCell id="h7OFD_jNxnPFpq3_Rw00-0" value="START" style="ellipse;whiteSpace=wrap;html=1;" vertex="1" parent="WIyWlLk6GJQsqaUBKTNV-1">
          <mxGeometry x="354" y="30" width="120" height="80" as="geometry" />
        </mxCell>
        <mxCell id="h7OFD_jNxnPFpq3_Rw00-1" value="&lt;p style=&quot;margin:0px;margin-top:4px;text-align:center;&quot;&gt;Devo pubblicare una o piÃ¹ foto su istagram&lt;/p&gt;&lt;p&gt;&lt;/p&gt;" style="shape=rect;overflow=fill;html=1;whiteSpace=wrap;align=center;" vertex="1" parent="WIyWlLk6GJQsqaUBKTNV-1">
          <mxGeometry x="20" y="10" width="220" height="40" as="geometry" />
        </mxCell>
        <mxCell id="h7OFD_jNxnPFpq3_Rw00-20" value="" style="edgeStyle=orthogonalEdgeStyle;rounded=0;orthogonalLoop=1;jettySize=auto;html=1;" edge="1" parent="WIyWlLk6GJQsqaUBKTNV-1" source="h7OFD_jNxnPFpq3_Rw00-19" target="h7OFD_jNxnPFpq3_Rw00-0">
          <mxGeometry relative="1" as="geometry" />
        </mxCell>
        <mxCell id="h7OFD_jNxnPFpq3_Rw00-24" value="SI" style="edgeStyle=orthogonalEdgeStyle;rounded=0;orthogonalLoop=1;jettySize=auto;html=1;" edge="1" parent="WIyWlLk6GJQsqaUBKTNV-1" source="h7OFD_jNxnPFpq3_Rw00-19" target="h7OFD_jNxnPFpq3_Rw00-23">
          <mxGeometry relative="1" as="geometry" />
        </mxCell>
        <mxCell id="h7OFD_jNxnPFpq3_Rw00-19" value="Ho (ancora) foto da caricare?" style="rhombus;whiteSpace=wrap;html=1;" vertex="1" parent="WIyWlLk6GJQsqaUBKTNV-1">
          <mxGeometry x="304.5" y="160" width="219" height="110" as="geometry" />
        </mxCell>
        <mxCell id="h7OFD_jNxnPFpq3_Rw00-22" value="NO" style="edgeStyle=orthogonalEdgeStyle;rounded=0;orthogonalLoop=1;jettySize=auto;html=1;" edge="1" parent="WIyWlLk6GJQsqaUBKTNV-1" source="h7OFD_jNxnPFpq3_Rw00-21" target="h7OFD_jNxnPFpq3_Rw00-19">
          <mxGeometry relative="1" as="geometry" />
        </mxCell>
        <mxCell id="h7OFD_jNxnPFpq3_Rw00-21" value="FINE" style="ellipse;whiteSpace=wrap;html=1;" vertex="1" parent="WIyWlLk6GJQsqaUBKTNV-1">
          <mxGeometry x="110" y="175" width="120" height="80" as="geometry" />
        </mxCell>
        <mxCell id="h7OFD_jNxnPFpq3_Rw00-28" value="" style="edgeStyle=orthogonalEdgeStyle;rounded=0;orthogonalLoop=1;jettySize=auto;html=1;" edge="1" parent="WIyWlLk6GJQsqaUBKTNV-1" source="h7OFD_jNxnPFpq3_Rw00-23" target="h7OFD_jNxnPFpq3_Rw00-27">
          <mxGeometry relative="1" as="geometry" />
        </mxCell>
        <mxCell id="h7OFD_jNxnPFpq3_Rw00-23" value="Controllo la foto" style="whiteSpace=wrap;html=1;" vertex="1" parent="WIyWlLk6GJQsqaUBKTNV-1">
          <mxGeometry x="354" y="375" width="120" height="60" as="geometry" />
        </mxCell>
        <mxCell id="h7OFD_jNxnPFpq3_Rw00-30" value="NO" style="edgeStyle=orthogonalEdgeStyle;rounded=0;orthogonalLoop=1;jettySize=auto;html=1;" edge="1" parent="WIyWlLk6GJQsqaUBKTNV-1" source="h7OFD_jNxnPFpq3_Rw00-27" target="h7OFD_jNxnPFpq3_Rw00-29">
          <mxGeometry relative="1" as="geometry" />
        </mxCell>
        <mxCell id="h7OFD_jNxnPFpq3_Rw00-34" value="SI" style="edgeStyle=orthogonalEdgeStyle;rounded=0;orthogonalLoop=1;jettySize=auto;html=1;" edge="1" parent="WIyWlLk6GJQsqaUBKTNV-1" source="h7OFD_jNxnPFpq3_Rw00-27" target="h7OFD_jNxnPFpq3_Rw00-33">
          <mxGeometry relative="1" as="geometry" />
        </mxCell>
        <mxCell id="h7OFD_jNxnPFpq3_Rw00-27" value="Mi piace la foto?" style="rhombus;whiteSpace=wrap;html=1;" vertex="1" parent="WIyWlLk6GJQsqaUBKTNV-1">
          <mxGeometry x="344.5" y="505" width="139" height="80" as="geometry" />
        </mxCell>
        <mxCell id="h7OFD_jNxnPFpq3_Rw00-32" style="edgeStyle=orthogonalEdgeStyle;rounded=0;orthogonalLoop=1;jettySize=auto;html=1;entryX=1;entryY=0.5;entryDx=0;entryDy=0;" edge="1" parent="WIyWlLk6GJQsqaUBKTNV-1" source="h7OFD_jNxnPFpq3_Rw00-29" target="h7OFD_jNxnPFpq3_Rw00-19">
          <mxGeometry relative="1" as="geometry">
            <Array as="points">
              <mxPoint x="640" y="215" />
            </Array>
          </mxGeometry>
        </mxCell>
        <mxCell id="h7OFD_jNxnPFpq3_Rw00-29" value="La scarto" style="whiteSpace=wrap;html=1;" vertex="1" parent="WIyWlLk6GJQsqaUBKTNV-1">
          <mxGeometry x="573" y="510" width="120" height="65" as="geometry" />
        </mxCell>
        <mxCell id="h7OFD_jNxnPFpq3_Rw00-38" value="" style="edgeStyle=orthogonalEdgeStyle;rounded=0;orthogonalLoop=1;jettySize=auto;html=1;" edge="1" parent="WIyWlLk6GJQsqaUBKTNV-1" source="h7OFD_jNxnPFpq3_Rw00-33" target="h7OFD_jNxnPFpq3_Rw00-37">
          <mxGeometry relative="1" as="geometry" />
        </mxCell>
        <mxCell id="h7OFD_jNxnPFpq3_Rw00-33" value="Provo diversi effetti" style="whiteSpace=wrap;html=1;" vertex="1" parent="WIyWlLk6GJQsqaUBKTNV-1">
          <mxGeometry x="354" y="675" width="120" height="60" as="geometry" />
        </mxCell>
        <mxCell id="h7OFD_jNxnPFpq3_Rw00-41" value="SI" style="edgeStyle=orthogonalEdgeStyle;rounded=0;orthogonalLoop=1;jettySize=auto;html=1;" edge="1" parent="WIyWlLk6GJQsqaUBKTNV-1" source="h7OFD_jNxnPFpq3_Rw00-37" target="h7OFD_jNxnPFpq3_Rw00-40">
          <mxGeometry relative="1" as="geometry" />
        </mxCell>
        <mxCell id="h7OFD_jNxnPFpq3_Rw00-43" value="NO" style="edgeStyle=orthogonalEdgeStyle;rounded=0;orthogonalLoop=1;jettySize=auto;html=1;" edge="1" parent="WIyWlLk6GJQsqaUBKTNV-1" source="h7OFD_jNxnPFpq3_Rw00-37" target="h7OFD_jNxnPFpq3_Rw00-42">
          <mxGeometry relative="1" as="geometry" />
        </mxCell>
        <mxCell id="h7OFD_jNxnPFpq3_Rw00-37" value="Mi piace la foto con uno di questi effetti?" style="rhombus;whiteSpace=wrap;html=1;" vertex="1" parent="WIyWlLk6GJQsqaUBKTNV-1">
          <mxGeometry x="331" y="810" width="166" height="120" as="geometry" />
        </mxCell>
        <mxCell id="h7OFD_jNxnPFpq3_Rw00-44" style="edgeStyle=orthogonalEdgeStyle;rounded=0;orthogonalLoop=1;jettySize=auto;html=1;" edge="1" parent="WIyWlLk6GJQsqaUBKTNV-1" source="h7OFD_jNxnPFpq3_Rw00-40">
          <mxGeometry relative="1" as="geometry">
            <mxPoint x="650" y="580" as="targetPoint" />
          </mxGeometry>
        </mxCell>
        <mxCell id="h7OFD_jNxnPFpq3_Rw00-40" value="La pubblico con l&#39;effetto scelto" style="whiteSpace=wrap;html=1;" vertex="1" parent="WIyWlLk6GJQsqaUBKTNV-1">
          <mxGeometry x="600" y="840" width="120" height="60" as="geometry" />
        </mxCell>
        <mxCell id="h7OFD_jNxnPFpq3_Rw00-45" style="edgeStyle=orthogonalEdgeStyle;rounded=0;orthogonalLoop=1;jettySize=auto;html=1;entryX=1;entryY=0.5;entryDx=0;entryDy=0;" edge="1" parent="WIyWlLk6GJQsqaUBKTNV-1" source="h7OFD_jNxnPFpq3_Rw00-42" target="h7OFD_jNxnPFpq3_Rw00-29">
          <mxGeometry relative="1" as="geometry">
            <Array as="points">
              <mxPoint x="760" y="1070" />
              <mxPoint x="760" y="543" />
            </Array>
          </mxGeometry>
        </mxCell>
        <mxCell id="h7OFD_jNxnPFpq3_Rw00-42" value="La pubblico senza effetto&amp;nbsp;" style="whiteSpace=wrap;html=1;" vertex="1" parent="WIyWlLk6GJQsqaUBKTNV-1">
          <mxGeometry x="354" y="1040" width="120" height="60" as="geometry" />
        </mxCell>
      </root>
    </mxGraphModel>
  </diagram>
</mxfile>
